<?xml version="1.0" encoding="utf-8"?>
<!-- Generator: Adobe Illustrator 23.0.1, SVG Export Plug-In . SVG Version: 6.00 Build 0)  -->
<svg version="1.1" id="Layer_1" xmlns="http://www.w3.org/2000/svg" xmlns:xlink="http://www.w3.org/1999/xlink" x="0px" y="0px"
	 viewBox="0 0 516.2 128.3" style="enable-background:new 0 0 516.2 128.3;" xml:space="preserve">
<style type="text/css">
	.st0{fill-rule:evenodd;clip-rule:evenodd;fill:#3590DC;}
	.st1{fill-rule:evenodd;clip-rule:evenodd;fill:#125D91;}
	.st2{fill:#33383E;}
</style>
<g>
	<g>
		<path class="st0" d="M52.8,1.2L4.6,125.7c-0.5,1.2,0.3,2.6,1.7,2.6h4.3c26.5,0,69.9-63.7,61-86.9c0,0,0,0,0,0L56.3,1.2
			C55.7-0.4,53.4-0.4,52.8,1.2z"/>
		<path class="st1" d="M82.3,69.1L82.3,69.1l21.6,56.7c0.4,1.1-0.4,2.4-1.8,2.4H76.6c-37,0-6.5-17.6,0.7-56.9
			c0.4-3.1,1.3-4.6,2.7-4.6C81.1,66.8,81.8,67.5,82.3,69.1"/>
	</g>
	<g>
		<g>
			<g>
				<path class="st2" d="M340.2,98.3c3.4,1.8,6.2,3.1,8.4,3.6c2.2,0.6,5.1,0.9,8.8,0.9c6.5,0,11.6-1.4,15.3-4.4s5.6-6.9,5.6-12
					c0-3.8-1-7.1-3.2-9.7c-2.1-2.7-5.6-5-10.4-6.9s-7.9-3.4-9.4-4.5c-1.5-1.1-2.2-2.4-2.2-3.8c0-3.5,2.2-5.3,6.7-5.3
					c5,0,8.8,1.2,11.6,3.6l3.7-9.9c-5-2.6-10.3-3.8-16-3.8c-5.6,0-10.2,1.3-13.8,3.9c-3.6,2.6-5.4,6.3-5.4,11.1
					c0,7,4.7,12.5,14.1,16.4c4.3,1.8,7.2,3.4,8.7,4.7c1.5,1.3,2.2,3,2.2,5.1c0,3.5-2.5,5.3-7.5,5.3c-4.8,0-9.5-1.8-13.3-4.8
					L340.2,98.3L340.2,98.3z"/>
				<path class="st2" d="M390.5,57.5L390.5,57.5h-7V47.2h7V36.1l12.8-4.7v15.8H420v10.2h-16.7v23.9c0,3.9,0.6,6.7,1.8,8.3
					s3.4,2.4,6.4,2.4s5.9-0.8,8.6-2.5v11.7c-3,1-7.2,1.5-12.6,1.5c-5.4,0-9.6-1.5-12.5-4.6c-2.9-3.1-4.4-7.5-4.4-13.1V57.5"/>
				<path class="st2" d="M461.8,59.2L461.8,59.2c-2.3-1.5-5.7-2.3-8.4-2.3c-3,0-5.6,1.3-7.9,4c-2.3,2.7-3.4,6-3.4,9.8v31.1h-12.8
					V47.2H442v5c3.6-4,8.3-6,14.2-6c4.4,0,7.7,0.7,10,2L461.8,59.2"/>
				<path class="st2" d="M511.8,85.1V73.4c0-10.6-1.9-17.8-5.8-21.5s-10-5.7-18.3-5.7c-6,0-11.3,1.1-15.7,3.2l3.7,9.6
					c3.2-1.6,6.3-2.1,11-2.1c8.1,0,12.2,3.2,12.2,9.6c-2-0.5-3.8-0.8-5.3-0.8c-8.7,0-15.5,1.8-20.2,5.4s-7.1,8.5-7.1,14.8
					c0,5.4,1.7,9.6,5,12.5s8,4.4,13.9,4.4c3.1,0,6.1-0.6,9-1.8c2.9-1.2,4.9-2.8,6-4.7c0.5,1.6,1.5,3.1,3,4.4s3.1,2,5,2
					c1.7,0,3.2-0.2,4.4-0.6s2.5-1.6,3.5-3.4C513.3,97,511.8,92.4,511.8,85.1z M499.8,81.3c0,7.7-3.8,11.5-11.5,11.5
					c-5.7,0-8.5-2.4-8.5-7.3c0-6.6,5-9.9,15.1-9.9c1.1,0,2.7,0.2,4.9,0.7V81.3z"/>
				<path class="st2" d="M314.9,86.7l5.5,15.2h15.4l-29.3-75.8h-7.3l-29.3,75.8h15.4l5.5-15.2H314.9z M293.8,76.6l9-27.6l9,27.6
					H293.8z"/>
			</g>
		</g>
		<g>
			<path class="st2" d="M181.5,101.9L176,86.7h-25.6l-5.2,15.1h-14.7l29.8-75.7h5.8l30,75.7H181.5z M163.2,49l-9,27.6h17.9L163.2,49
				z"/>
			<path class="st2" d="M236.2,101.9v-3.3c-1,1.1-2.8,2.2-5.4,3c-2.5,0.9-5.1,1.3-7.8,1.3c-7.6,0-13.6-2.4-18-7.2
				c-4.4-4.8-6.6-11.6-6.6-20.2s2.5-15.6,7.5-21.1c5-5.4,11.3-8.1,18.8-8.1c4.1,0,7.9,0.8,11.3,2.6V26.2H249l0,75.6H236.2z
				 M236.2,60.3c-2.7-2.2-5.5-3.3-8.5-3.3c-5.1,0-9,1.6-11.8,4.7c-2.8,3.1-4.1,7.6-4.1,13.4c0,11.3,5.5,17,16.4,17
				c1.2,0,2.7-0.4,4.5-1.1c1.8-0.7,3-1.5,3.5-2.2V60.3z"/>
		</g>
	</g>
</g>
</svg>
